<?xml version="1.0" standalone="no"?>
<!DOCTYPE svg PUBLIC "-//W3C//DTD SVG 20010904//EN"
 "http://www.w3.org/TR/2001/REC-SVG-20010904/DTD/svg10.dtd">
<svg version="1.0" xmlns="http://www.w3.org/2000/svg"
 width="612.000000pt" height="612.000000pt" viewBox="0 0 612.000000 612.000000"
 preserveAspectRatio="xMidYMid meet">

<g transform="translate(0.000000,612.000000) scale(0.100000,-0.100000)"
fill="#000000" stroke="none">
<path d="M2860 4759 c-401 -52 -755 -228 -1027 -513 -540 -564 -636 -1405
-236 -2070 70 -116 146 -212 257 -321 107 -107 214 -195 236 -195 5 0 10 -4
10 -8 0 -24 372 -209 433 -216 13 -1 27 -5 33 -8 41 -26 271 -66 402 -70 l82
-3 0 414 c0 228 -1 415 -3 417 -1 2 -47 10 -102 18 -126 19 -244 61 -343 122
-76 47 -98 66 -177 154 -86 95 -162 235 -201 370 -28 99 -26 328 3 432 74 257
247 461 480 564 80 36 234 74 299 74 l54 0 0 425 0 425 -67 -1 c-38 -1 -97 -5
-133 -10z"/>
</g>
</svg>
