<?xml version="1.0" standalone="no"?>
<!DOCTYPE svg PUBLIC "-//W3C//DTD SVG 20010904//EN"
 "http://www.w3.org/TR/2001/REC-SVG-20010904/DTD/svg10.dtd">
<svg version="1.0" xmlns="http://www.w3.org/2000/svg"
 width="225.000000pt" height="225.000000pt" viewBox="0 0 225.000000 225.000000"
 preserveAspectRatio="xMidYMid meet">

<g transform="translate(0.000000,225.000000) scale(0.100000,-0.100000)"
fill="#000000" stroke="none">
<path d="M1015 1736 c-222 -43 -401 -195 -474 -402 -28 -82 -42 -188 -32 -254
5 -30 9 -44 10 -31 1 24 2 24 15 6 13 -18 14 -18 10 10 -2 17 6 -6 19 -50 32
-107 48 -143 95 -212 124 -182 363 -277 584 -232 74 15 204 80 265 134 52 46
121 144 148 212 8 21 22 68 29 103 8 36 15 57 15 48 1 -26 21 -22 22 5 1 14 4
9 8 -13 6 -34 7 -33 14 20 11 88 -15 218 -63 319 -33 69 -56 100 -123 166
-150 147 -346 209 -542 171z m245 -58 c123 -28 264 -126 334 -233 46 -68 89
-181 84 -217 -3 -15 -1 -25 4 -22 4 3 8 -10 8 -28 -1 -31 -1 -32 -15 -14 -8
11 -15 27 -15 37 0 64 -74 215 -142 290 -155 170 -420 217 -637 112 -73 -35
-184 -142 -226 -218 -19 -34 -44 -97 -55 -140 -21 -81 -26 -93 -36 -82 -13 13
20 142 56 217 115 236 378 359 640 298z m-21 -190 c43 -13 101 -47 101 -59 0
-5 -13 -6 -30 -2 -20 3 -30 1 -30 -6 0 -9 -5 -9 -21 0 -24 13 -164 16 -281 8
-44 -4 -75 -3 -72 3 10 17 108 60 153 68 52 9 129 4 180 -12z m-124 -651 c94
0 183 3 198 7 43 10 25 -10 -36 -41 -103 -53 -268 -41 -344 25 -21 17 -23 22
-8 16 11 -4 97 -7 190 -7z"/>
<path d="M521 984 c0 -11 3 -14 6 -6 3 7 2 16 -1 19 -3 4 -6 -2 -5 -13z"/>
<path d="M1721 984 c0 -11 3 -14 6 -6 3 7 2 16 -1 19 -3 4 -6 -2 -5 -13z"/>
</g>
</svg>
