<!DOCTYPE svg PUBLIC "-//W3C//DTD SVG 20010904//EN" "http://www.w3.org/TR/2001/REC-SVG-20010904/DTD/svg10.dtd">
<svg version="1.0" xmlns="http://www.w3.org/2000/svg" width="263px" height="192px" viewBox="0 0 2630 1920" preserveAspectRatio="xMidYMid meet">
<g id="layer101" fill="#458010" stroke="none">
<path d="M0 960 l0 -960 1315 0 1315 0 0 960 0 960 -1315 0 -1315 0 0 -960z"/>
</g>
<g id="layer102" fill="#4b9708" stroke="none">
<path d="M0 960 l0 -960 1315 0 1315 0 0 960 0 960 -1315 0 -1315 0 0 -960z m1200 340 c0 -5 -5 -10 -11 -10 -5 0 -7 5 -4 10 3 6 8 10 11 10 2 0 4 -4 4 -10z m-125 -80 c3 -5 4 -10 1 -10 -3 0 -8 5 -11 10 -3 6 -4 10 -1 10 3 0 8 -4 11 -10z m520 -40 c3 -5 4 -10 1 -10 -3 0 -8 5 -11 10 -3 6 -4 10 -1 10 3 0 8 -4 11 -10z"/>
</g>
<g id="layer103" fill="#61ae14" stroke="none">
<path d="M0 960 l0 -960 1315 0 1315 0 0 960 0 960 -1315 0 -1315 0 0 -960z m1448 366 c29 -15 67 -41 85 -59 40 -39 92 -115 84 -123 -3 -3 -13 8 -23 25 -10 17 -22 31 -27 31 -4 0 -6 4 -3 8 3 5 -21 24 -52 42 -31 19 -59 37 -62 40 -9 10 -35 14 -118 18 -62 3 -95 0 -128 -13 -24 -9 -48 -14 -54 -10 -6 4 -9 1 -8 -5 2 -7 -12 -20 -30 -30 -18 -10 -33 -22 -34 -27 -1 -11 -68 -89 -68 -78 0 17 42 75 51 70 5 -4 6 0 4 8 -3 7 10 27 28 44 103 94 242 117 355 59z m-441 -213 c-4 -3 -7 0 -7 7 0 7 3 10 7 7 3 -4 3 -10 0 -14z m620 0 c-4 -3 -7 0 -7 7 0 7 3 10 7 7 3 -4 3 -10 0 -14z m10 -30 c-4 -3 -7 0 -7 7 0 7 3 10 7 7 3 -4 3 -10 0 -14z m-272 -83 c-8 -13 -105 -10 -105 2 0 4 25 8 56 8 36 0 53 -4 49 -10z"/>
</g>
<g id="layer104" fill="#60a52e" stroke="none">
<path d="M0 960 l0 -960 1315 0 1315 0 0 960 0 960 -1315 0 -1315 0 0 -960z m1452 370 c26 -13 66 -41 89 -63 40 -39 100 -146 98 -177 0 -8 -5 -1 -11 15 -12 33 -46 86 -63 97 -6 5 -6 8 0 8 16 0 -63 50 -121 77 -48 22 -66 24 -142 21 -92 -4 -155 -26 -203 -71 -13 -12 -28 -21 -34 -19 -5 2 -7 0 -2 -4 4 -4 -2 -17 -13 -29 -11 -12 -29 -39 -40 -61 -25 -48 -15 -6 12 51 33 71 114 143 193 173 51 19 183 9 237 -18z m195 -282 c-3 -8 -6 -5 -6 6 -1 11 2 17 5 13 3 -3 4 -12 1 -19z m-660 -5 c-4 -3 -7 0 -7 7 0 7 3 10 7 7 3 -4 3 -10 0 -14z m381 -35 c-6 -17 -108 -20 -108 -3 0 7 20 12 56 14 42 2 55 -1 52 -11z m159 -85 c-4 -3 -7 0 -7 7 0 7 3 10 7 7 3 -4 3 -10 0 -14z"/>
</g>
<g id="layer105" fill="#72d116" stroke="none">
<path d="M0 960 l0 -960 1315 0 1315 0 0 960 0 960 -1315 0 -1315 0 0 -960z m1452 370 c94 -47 174 -156 192 -260 5 -26 1 -21 -16 23 -32 79 -95 149 -165 184 -51 24 -70 28 -148 28 -71 0 -100 -5 -137 -22 -64 -29 -132 -95 -163 -157 -18 -34 -24 -42 -20 -22 21 101 114 204 220 244 51 19 183 9 237 -18z m-465 -287 c-4 -3 -7 0 -7 7 0 7 3 10 7 7 3 -4 3 -10 0 -14z m383 -37 c0 -13 -12 -16 -55 -16 -39 0 -55 4 -55 13 0 9 17 14 55 16 44 2 55 -1 55 -13z m157 -88 c-3 -8 -6 -5 -6 6 -1 11 2 17 5 13 3 -3 4 -12 1 -19z m-403 -34 c3 -8 2 -12 -4 -9 -6 3 -10 10 -10 16 0 14 7 11 14 -7z m42 -56 l29 -33 -32 29 c-31 28 -38 36 -30 36 2 0 16 -15 33 -32z m334 29 c0 -2 -15 -16 -32 -33 l-33 -29 29 33 c28 30 36 37 36 29z"/>
</g>
<g id="layer106" fill="#89db23" stroke="none">
<path d="M0 960 l0 -960 1315 0 1315 0 0 960 0 960 -1315 0 -1315 0 0 -960z m1460 684 c89 -20 139 -38 186 -65 111 -64 216 -163 260 -244 6 -11 21 -38 34 -60 44 -78 80 -218 80 -315 0 -97 -36 -237 -80 -315 -13 -22 -28 -49 -34 -60 -20 -37 -71 -98 -114 -139 -54 -51 -162 -118 -179 -112 -7 3 -12 1 -10 -5 3 -13 -54 -33 -152 -55 -103 -23 -253 -15 -352 20 -40 14 -75 29 -78 33 -3 4 -13 9 -21 11 -70 15 -235 169 -293 274 -153 274 -118 590 91 818 76 83 150 135 257 179 122 51 280 65 405 35z"/>
<path d="M1393 1613 c4 -3 10 -3 14 0 3 4 0 7 -7 7 -7 0 -10 -3 -7 -7z"/>
<path d="M1024 1538 c-4 -7 -3 -8 4 -4 7 4 12 9 12 12 0 8 -9 4 -16 -8z"/>
<path d="M750 1350 c0 -7 3 -10 7 -7 3 4 3 10 0 14 -4 3 -7 0 -7 -7z"/>
<path d="M1213 1296 c-90 -29 -168 -100 -205 -184 -22 -51 -38 -189 -26 -222 5 -13 4 -19 -2 -15 -6 3 -10 13 -10 22 0 13 -8 14 -41 9 -41 -7 -53 -15 -77 -51 -30 -49 -37 -75 -36 -155 0 -69 4 -94 24 -135 31 -64 110 -142 177 -176 29 -15 49 -30 45 -33 -3 -4 1 -4 11 0 10 3 17 1 17 -6 0 -6 4 -9 8 -6 5 3 33 -1 63 -9 70 -19 227 -19 308 0 141 34 274 129 322 231 30 64 34 202 7 249 -10 17 -20 38 -24 48 -3 9 -15 17 -25 17 -11 0 -19 5 -19 10 0 6 -11 16 -25 22 -14 6 -25 17 -25 24 0 7 -5 16 -12 20 -8 5 -9 0 -6 -14 4 -12 2 -22 -3 -22 -5 0 -9 26 -10 58 -1 122 -79 247 -186 298 -69 33 -183 42 -250 20z m182 -121 c86 -41 122 -86 134 -166 7 -41 6 -49 -8 -49 -13 0 -13 -2 -2 -9 9 -6 11 -18 6 -40 -8 -39 -25 -50 -25 -17 0 33 -29 36 -31 4 l-2 -23 -4 23 c-2 12 -8 22 -13 22 -5 0 -11 10 -13 23 -2 12 -5 2 -6 -23 -3 -44 -3 -44 -13 -16 -7 20 -7 39 0 64 6 20 10 38 7 40 -2 2 -9 -16 -15 -40 -26 -93 -28 -96 -29 -35 l-1 57 -64 0 c-61 0 -89 -11 -66 -25 5 -3 10 -12 10 -18 0 -8 -4 -7 -9 2 -7 10 -12 2 -19 -30 l-10 -44 -2 45 -3 45 -7 -35 c-4 -19 -8 -29 -9 -22 0 7 -16 12 -41 12 -33 0 -40 -3 -40 -19 0 -11 6 -22 13 -24 9 -4 9 -6 0 -6 -17 -1 -25 15 -26 55 -1 19 -4 34 -7 34 -8 0 4 76 16 105 17 42 85 102 132 118 65 22 89 21 147 -8z m282 -292 c-4 -3 -7 0 -7 7 0 7 3 10 7 7 3 -4 3 -10 0 -14z m-20 -10 c-4 -3 -10 -3 -14 0 -3 4 0 7 7 7 7 0 10 -3 7 -7z m-507 -24 c0 -6 7 -8 16 -5 10 4 13 2 8 -6 -4 -6 1 -17 11 -25 11 -7 14 -13 9 -13 -6 0 -23 14 -39 30 -16 17 -23 30 -17 30 7 0 12 -5 12 -11z m350 8 c0 -2 -15 -16 -32 -33 l-33 -29 29 33 c28 30 36 37 36 29z m-73 -64 c-4 -3 -10 -3 -14 0 -3 4 0 7 7 7 7 0 10 -3 7 -7z"/>
<path d="M1243 1143 c4 -3 10 -3 14 0 3 4 0 7 -7 7 -7 0 -10 -3 -7 -7z"/>
<path d="M1074 1258 c-4 -7 -3 -8 4 -4 12 7 16 16 8 16 -3 0 -8 -5 -12 -12z"/>
<path d="M1010 1180 c0 -7 3 -10 7 -7 3 4 3 10 0 14 -4 3 -7 0 -7 -7z"/>
<path d="M1610 1180 c0 -7 3 -10 7 -7 3 4 3 10 0 14 -4 3 -7 0 -7 -7z"/>
<path d="M750 570 c0 -7 3 -10 7 -7 3 4 3 10 0 14 -4 3 -7 0 -7 -7z"/>
</g>
<g id="layer107" fill="#8fd942" stroke="none">
<path d="M0 960 l0 -960 1315 0 1315 0 0 960 0 960 -1315 0 -1315 0 0 -960z m1446 689 c119 -21 222 -72 330 -163 74 -62 123 -129 179 -241 82 -167 82 -404 -1 -570 -53 -107 -94 -165 -162 -229 -54 -51 -162 -118 -179 -112 -7 3 -12 1 -10 -5 3 -14 -79 -44 -156 -58 -160 -28 -305 -7 -456 67 -101 49 -238 184 -294 290 -21 39 -40 79 -42 89 -3 10 -12 43 -21 73 -24 79 -24 254 0 345 46 176 194 363 346 441 154 78 306 102 466 73z"/>
<path d="M1202 1292 c-147 -53 -230 -187 -220 -356 4 -65 3 -75 -6 -53 -10 27 -13 28 -49 23 -39 -7 -51 -15 -75 -51 -30 -49 -37 -75 -36 -155 0 -98 19 -149 85 -223 45 -52 164 -118 255 -141 78 -20 229 -20 313 -1 141 34 274 129 322 231 34 73 33 193 -1 263 -16 32 -31 51 -42 51 -10 0 -18 5 -18 10 0 6 -11 15 -24 21 -13 6 -27 21 -30 32 -3 12 -8 18 -12 15 -3 -4 -1 -21 5 -39 6 -18 9 -35 6 -37 -12 -12 -19 13 -25 90 -9 101 -33 164 -88 228 -83 96 -237 135 -360 92z m169 -103 c54 -19 117 -70 139 -115 23 -46 28 -132 11 -176 -13 -35 -30 -37 -23 -3 3 18 0 25 -12 25 -10 0 -17 -9 -17 -22 l-2 -23 -4 23 c-2 12 -8 22 -13 22 -5 0 -11 10 -13 23 -2 12 -5 2 -7 -23 -1 -25 -4 -37 -7 -27 -2 9 -11 17 -18 17 -7 0 -16 -8 -18 -17 -3 -10 -5 8 -6 40 l-1 58 -62 -3 c-68 -3 -67 -3 -83 -80 -6 -33 -21 -36 -30 -8 -9 29 -85 29 -85 1 0 -11 5 -22 10 -24 6 -3 5 -4 -2 -3 -42 8 -36 178 8 223 7 7 14 16 16 20 8 19 59 56 95 68 47 17 80 18 124 4z m-114 -246 c-4 -3 -7 0 -7 7 0 7 3 10 7 7 3 -4 3 -10 0 -14z m396 -56 c3 -8 1 -20 -4 -28 -6 -10 -9 -7 -9 14 0 29 5 35 13 14z m-503 -38 c0 -6 7 -8 16 -5 10 4 13 2 8 -6 -4 -6 1 -17 11 -25 11 -7 14 -13 9 -13 -6 0 -23 14 -39 30 -16 17 -23 30 -17 30 7 0 12 -5 12 -11z m350 6 c0 -1 -15 -14 -32 -31 -27 -23 -29 -24 -10 -3 12 14 20 28 17 31 -3 2 2 5 10 5 8 0 15 -1 15 -2z m-73 -62 c-4 -3 -10 -3 -14 0 -3 4 0 7 7 7 7 0 10 -3 7 -7z"/>
<path d="M1845 550 c3 -5 8 -10 11 -10 3 0 2 5 -1 10 -3 6 -8 10 -11 10 -3 0 -2 -4 1 -10z"/>
</g>
<g id="layer108" fill="#a6e26b" stroke="none">
<path d="M0 960 l0 -960 1315 0 1315 0 0 960 0 960 -1315 0 -1315 0 0 -960z m1470 686 c137 -34 245 -93 338 -185 239 -237 279 -600 98 -881 -133 -204 -344 -320 -586 -320 -122 0 -210 20 -315 70 -175 85 -307 241 -367 434 -32 101 -32 291 0 392 74 240 264 423 502 485 80 21 253 24 330 5z"/>
<path d="M1210 1294 c-180 -65 -273 -258 -209 -431 12 -32 25 -60 29 -63 3 -3 9 -12 13 -20 4 -8 15 -26 24 -40 17 -24 17 -24 0 -11 -12 10 -42 13 -102 12 -50 -1 -85 2 -85 7 0 6 -9 8 -20 5 -11 -3 -20 -13 -20 -22 0 -14 -2 -14 -11 -1 -19 27 -5 -121 16 -163 70 -145 263 -247 466 -247 162 0 304 54 400 150 71 73 92 117 97 206 3 58 1 72 -12 77 -12 5 -16 0 -17 -16 -1 -12 -3 -15 -5 -7 -4 12 -20 14 -87 12 -45 -2 -88 -8 -95 -14 -9 -8 -11 -7 -6 6 3 9 1 16 -5 16 -6 0 -11 -5 -11 -12 0 -6 -3 -8 -7 -5 -3 4 3 17 15 30 71 75 90 243 41 348 -58 124 -155 190 -289 196 -52 2 -89 -2 -120 -13z m197 -118 c142 -66 172 -254 56 -355 -25 -23 -52 -41 -59 -41 -8 0 -14 -9 -14 -20 0 -11 -4 -20 -10 -20 -5 0 -9 8 -8 18 1 9 0 65 0 125 l-2 107 -55 0 -55 0 0 -128 c0 -115 -2 -129 -20 -145 -11 -9 -20 -13 -20 -7 0 5 5 12 10 15 6 3 10 15 10 26 0 11 -4 18 -9 14 -5 -3 -12 4 -16 15 -3 11 -12 20 -20 20 -7 0 -28 17 -48 39 -79 88 -62 243 35 312 74 53 147 61 225 25z m0 -433 c-4 -3 -7 0 -7 7 0 7 3 10 7 7 3 -4 3 -10 0 -14z m-530 -40 c-4 -3 -7 0 -7 7 0 7 3 10 7 7 3 -4 3 -10 0 -14z"/>
<path d="M1184 818 c-4 -7 -3 -8 4 -4 12 7 16 16 8 16 -3 0 -8 -5 -12 -12z"/>
</g>
<g id="layer109" fill="#bde992" stroke="none">
<path d="M0 960 l0 -960 1315 0 1315 0 0 960 0 960 -1315 0 -1315 0 0 -960z m1498 680 c238 -66 412 -234 493 -475 21 -60 24 -89 24 -205 0 -116 -3 -145 -24 -205 -103 -307 -359 -495 -671 -495 -123 0 -199 16 -301 63 -144 66 -253 169 -327 307 -63 119 -76 174 -76 330 0 184 28 272 131 418 84 118 253 231 400 266 91 22 264 20 351 -4z"/>
<path d="M1223 1295 c-105 -32 -176 -98 -219 -203 -27 -66 -30 -137 -9 -208 17 -57 89 -164 111 -164 7 0 14 -4 14 -9 0 -16 88 -60 93 -47 6 17 -4 126 -13 126 -3 0 -23 16 -43 36 -86 86 -83 226 5 311 37 36 103 63 152 63 160 0 273 -181 201 -320 -8 -15 -31 -42 -53 -62 -31 -28 -41 -45 -46 -82 -4 -25 -4 -55 -1 -66 6 -18 8 -18 53 7 62 34 119 96 150 163 21 44 26 71 27 135 0 71 -4 88 -33 148 -71 144 -240 219 -389 172z"/>
<path d="M1265 978 c-2 -7 -6 -89 -8 -183 -2 -93 -7 -180 -11 -192 -7 -18 -5 -23 8 -23 9 0 16 -4 16 -9 0 -6 -9 -9 -20 -8 -11 1 -20 8 -20 17 0 13 -25 15 -180 15 -113 0 -180 -4 -180 -10 0 -5 -5 -3 -10 5 -8 13 -10 13 -10 -2 0 -31 51 -102 105 -145 148 -120 376 -155 566 -87 41 15 76 29 79 33 3 3 16 12 31 19 64 33 150 137 148 179 -1 13 -3 11 -9 -7 -5 -16 -8 -19 -9 -8 -1 15 -19 17 -166 20 -159 3 -165 2 -166 -17 0 -18 -1 -18 -11 3 -6 13 -17 21 -23 18 -17 -6 -25 69 -25 247 l0 147 -50 0 c-32 0 -52 -5 -55 -12z m78 -395 c-13 -2 -33 -2 -45 0 -13 2 -3 4 22 4 25 0 35 -2 23 -4z m34 -20 c-4 -3 -7 0 -7 7 0 7 3 10 7 7 3 -4 3 -10 0 -14z"/>
<path d="M1791 624 c0 -11 3 -14 6 -6 3 7 2 16 -1 19 -3 4 -6 -2 -5 -13z"/>
</g>
<g id="layer110" fill="#cef0ae" stroke="none">
<path d="M0 960 l0 -960 1315 0 1315 0 0 960 0 960 -1315 0 -1315 0 0 -960z m1473 688 c249 -52 463 -261 527 -514 27 -103 27 -245 0 -348 -59 -233 -237 -422 -471 -499 -216 -72 -481 -22 -659 126 -88 72 -140 136 -187 232 -50 100 -73 198 -73 315 0 313 194 577 495 674 106 35 247 40 368 14z"/>
<path d="M1218 1291 c-121 -40 -192 -116 -224 -241 -20 -80 -13 -143 25 -219 32 -63 88 -119 150 -150 l41 -21 0 59 c0 56 -2 60 -36 86 -104 79 -109 246 -11 335 89 81 226 78 311 -6 85 -86 86 -221 2 -308 -18 -18 -38 -35 -45 -37 -8 -3 -11 -25 -9 -66 l3 -62 33 16 c57 28 122 94 154 157 25 50 31 74 32 131 1 99 -24 163 -90 234 -91 98 -215 132 -336 92z"/>
<path d="M1262 784 l3 -196 53 -2 52 -1 0 198 0 197 -55 0 -55 0 2 -196z"/>
<path d="M910 490 c0 -5 5 -10 11 -10 5 0 7 5 4 10 -3 6 -8 10 -11 10 -2 0 -4 -4 -4 -10z"/>
<path d="M1695 480 c-3 -5 -2 -10 4 -10 5 0 13 5 16 10 3 6 2 10 -4 10 -5 0 -13 -4 -16 -10z"/>
<path d="M1030 470 c0 -7 3 -10 7 -7 3 4 3 10 0 14 -4 3 -7 0 -7 -7z"/>
<path d="M1613 465 c-17 -12 -70 -14 -309 -14 -159 1 -300 1 -314 1 -14 0 -31 4 -37 10 -7 6 -13 7 -13 2 1 -5 19 -22 42 -37 33 -23 43 -26 50 -15 8 10 9 9 4 -4 -6 -20 45 -46 134 -69 63 -16 257 -19 268 -4 4 6 22 11 40 13 47 3 145 53 132 66 -16 16 -12 30 5 16 13 -11 20 -11 40 0 14 7 25 17 25 22 0 11 -7 10 -30 -4 -26 -16 -40 0 -16 18 26 19 6 18 -21 -1z"/>
</g>
<g id="layer111" fill="#dfebe6" stroke="none">
<path d="M0 960 l0 -960 1315 0 1315 0 0 960 0 960 -1315 0 -1315 0 0 -960z m1445 694 c61 -11 121 -31 185 -62 82 -39 107 -57 185 -136 144 -146 205 -292 205 -496 0 -204 -61 -350 -205 -496 -78 -79 -103 -97 -185 -136 -180 -86 -368 -98 -550 -34 -107 37 -176 82 -270 176 -88 88 -139 172 -178 292 -24 75 -24 321 0 396 39 120 90 204 178 292 94 94 163 139 269 176 128 45 231 52 366 28z"/>
<path d="M1233 1295 c-133 -37 -224 -139 -243 -273 -14 -102 7 -173 76 -258 28 -34 116 -94 138 -94 3 0 6 23 6 52 0 47 -3 54 -40 85 -133 114 -91 337 73 382 116 33 219 -9 270 -108 48 -96 33 -187 -44 -262 -46 -45 -49 -51 -49 -98 0 -28 4 -51 9 -51 23 0 105 57 136 94 125 153 98 360 -63 483 -72 54 -179 74 -269 48z"/>
<path d="M1260 784 l0 -195 53 3 52 3 3 193 2 192 -55 0 -55 0 0 -196z"/>
<path d="M1498 363 c7 -3 16 -2 19 1 4 3 -2 6 -13 5 -11 0 -14 -3 -6 -6z"/>
<path d="M1168 343 c6 -2 18 -2 25 0 6 3 1 5 -13 5 -14 0 -19 -2 -12 -5z"/>
</g>
<g id="layer112" fill="#ebf4da" stroke="none">
<path d="M0 960 l0 -960 1315 0 1315 0 0 960 0 960 -1315 0 -1315 0 0 -960z m1457 691 c150 -30 297 -113 395 -226 111 -128 168 -285 168 -465 0 -181 -53 -327 -168 -465 -36 -43 -148 -134 -188 -153 -27 -12 -62 -30 -78 -38 -43 -22 -208 -54 -281 -54 -35 0 -99 8 -142 19 -265 63 -445 232 -531 496 -22 65 -23 307 -3 380 45 160 158 317 289 401 176 113 337 144 539 105z"/>
<path d="M1215 1290 c-16 -7 -13 -9 18 -9 20 -1 37 4 37 9 0 12 -27 12 -55 0z"/>
<path d="M1280 1290 c0 -5 23 -10 51 -10 31 0 48 4 44 10 -3 6 -26 10 -51 10 -24 0 -44 -4 -44 -10z"/>
<path d="M1135 1249 c-38 -28 -63 -53 -94 -92 -11 -14 -11 -20 -1 -32 11 -13 15 -12 34 8 46 51 60 70 49 63 -7 -4 -13 -3 -13 2 0 5 10 12 23 16 18 5 20 8 7 16 -8 5 -10 10 -5 10 12 -1 45 -25 45 -33 0 -3 -9 -3 -20 0 -11 3 -20 0 -20 -6 0 -6 5 -10 11 -8 6 1 14 -4 17 -12 2 -8 0 -11 -5 -8 -16 10 -42 -16 -47 -47 -3 -16 -12 -37 -21 -45 -13 -14 -15 -13 -15 7 0 13 4 21 9 17 6 -3 9 4 8 15 -1 20 -2 20 -14 4 -7 -10 -13 -32 -14 -48 0 -30 -1 -30 -20 13 -20 45 -31 46 -44 4 -4 -14 -2 -23 4 -23 6 0 11 -8 10 -17 0 -11 -3 -13 -6 -5 -10 25 -23 11 -22 -25 1 -34 2 -35 9 -13 8 24 8 24 9 -7 1 -30 -12 -52 -22 -36 -2 5 -2 2 0 -5 1 -8 3 -20 3 -28 0 -9 4 -13 8 -10 5 3 7 -8 4 -23 -8 -58 71 -165 151 -205 l52 -26 3 51 c3 48 1 52 -40 89 -30 26 -44 34 -46 24 -2 -9 -18 -14 -45 -14 l-42 0 4 48 c3 26 6 39 9 30 2 -10 8 -18 14 -18 6 0 8 9 5 20 -3 11 -1 18 4 14 5 -3 9 -11 9 -18 0 -7 6 -13 14 -13 11 0 12 6 5 24 -11 30 -39 60 -39 42 0 -7 -3 -10 -6 -6 -3 3 -1 14 5 24 6 10 11 12 11 6 0 -7 5 -13 10 -13 14 0 12 38 -2 42 -8 3 0 26 25 68 21 35 35 70 32 78 -5 13 -3 13 12 1 11 -9 14 -10 9 -1 -4 7 -1 12 8 12 9 0 16 6 16 14 0 9 7 12 18 10 9 -3 28 0 42 6 23 10 23 10 -7 6 -24 -4 -33 -2 -33 9 0 7 -10 21 -22 31 -23 16 -23 16 -2 11 16 -3 21 0 20 11 -4 25 -18 23 -61 -9z m52 14 c-4 -3 -10 -3 -14 0 -3 4 0 7 7 7 7 0 10 -3 7 -7z m-116 -105 c-11 -18 -21 -29 -21 -25 0 13 33 67 38 62 3 -2 -5 -19 -17 -37z m-31 -89 c0 -16 4 -29 10 -29 16 0 -7 -116 -30 -150 -12 -16 -4 25 11 68 5 13 9 33 8 45 0 21 -1 21 -9 2 -5 -13 -7 1 -6 42 1 60 16 81 16 22z m125 -280 c4 -10 13 -19 22 -19 12 0 13 -3 4 -14 -9 -11 -9 -15 1 -19 8 -3 6 -6 -6 -6 -12 -1 -16 4 -13 13 6 14 -16 39 -43 49 -11 4 -10 6 4 6 16 1 17 3 5 19 -13 15 -12 16 3 4 10 -8 20 -22 23 -33z m-78 -16 c-4 -3 -7 0 -7 7 0 7 3 10 7 7 3 -4 3 -10 0 -14z m25 -15 c-7 -7 -12 -8 -12 -2 0 14 12 26 19 19 2 -3 -1 -11 -7 -17z m38 -2 c0 -3 -4 -8 -10 -11 -5 -3 -10 -1 -10 4 0 6 5 11 10 11 6 0 10 -2 10 -4z m-3 -43 c-4 -3 -7 0 -7 7 0 7 3 10 7 7 3 -4 3 -10 0 -14z"/>
<path d="M1443 1244 c4 -25 0 -37 -12 -44 -9 -5 -11 -9 -6 -10 19 0 38 18 31 29 -9 13 -1 14 22 2 9 -6 30 -12 45 -16 17 -3 25 -10 21 -17 -4 -7 -3 -8 4 -4 17 10 15 -6 -4 -32 -17 -24 -13 -52 7 -52 7 0 9 9 6 21 -7 26 2 51 15 43 6 -4 5 -10 -3 -15 -12 -8 -12 -11 1 -18 8 -5 18 -7 22 -5 4 3 8 -2 8 -10 0 -9 -4 -16 -9 -16 -4 0 -6 -11 -3 -25 2 -15 0 -25 -7 -25 -6 0 -16 -10 -21 -22 -8 -21 -9 -21 -9 7 -1 17 -12 46 -24 65 -13 19 -22 41 -19 49 3 10 0 12 -12 8 -11 -5 -16 -1 -16 14 0 14 -5 19 -17 17 -23 -4 -27 -25 -6 -32 33 -11 73 -82 80 -138 3 -29 10 -58 15 -64 5 -8 3 -14 -7 -18 -8 -3 -15 -14 -15 -23 0 -10 -7 -29 -16 -41 -8 -12 -12 -27 -9 -32 4 -6 1 -9 -7 -8 -7 2 -12 -5 -12 -14 1 -10 -1 -16 -5 -14 -3 2 -17 0 -30 -5 -15 -6 -21 -14 -17 -25 3 -8 2 -12 -4 -9 -6 4 -10 -14 -10 -44 0 -39 4 -51 15 -51 8 0 15 4 15 9 0 5 11 12 25 15 36 9 108 84 140 146 16 32 16 33 -1 26 -18 -6 -18 -5 -1 8 13 10 16 21 11 41 -5 20 -4 26 4 21 14 -8 29 43 16 53 -5 3 -9 23 -10 43 -1 77 -107 223 -174 241 -19 5 -21 2 -17 -29z m49 2 c10 -7 15 -16 11 -19 -11 -11 -23 -8 -20 6 1 7 -6 11 -17 9 -11 -2 -15 1 -11 7 8 14 16 13 37 -3z m-27 -76 c3 -5 4 -10 1 -10 -3 0 -8 5 -11 10 -3 6 -4 10 -1 10 3 0 8 -4 11 -10z m122 -37 c-4 -3 -7 0 -7 7 0 7 3 10 7 7 3 -4 3 -10 0 -14z m28 -53 c3 -5 4 -10 1 -10 -3 0 -8 5 -11 10 -3 6 -4 10 -1 10 3 0 8 -4 11 -10z m-16 -55 c1 28 17 7 26 -34 5 -23 4 -31 -4 -27 -6 4 -11 14 -11 23 0 13 -2 13 -16 2 -12 -10 -15 -25 -11 -64 3 -27 3 -41 0 -31 -4 15 -7 16 -15 5 -9 -14 -5 49 9 116 5 27 7 28 14 10 7 -19 8 -19 8 0z m-42 -42 c-4 -3 -7 0 -7 7 0 7 3 10 7 7 3 -4 3 -10 0 -14z m51 -59 c-3 -14 -5 -12 -10 9 -3 19 -2 25 4 19 6 -6 8 -18 6 -28z m-48 -138 c0 -3 -5 -8 -12 -12 -7 -4 -8 -3 -4 4 7 12 16 16 16 8z"/>
<path d="M1508 1194 c-4 -5 0 -18 8 -29 15 -20 17 -12 5 19 -4 11 -10 15 -13 10z"/>
<path d="M1261 784 l-1 -195 52 3 53 3 3 193 2 192 -54 0 -54 0 -1 -196z m99 135 c0 -39 0 -39 -40 -39 -25 0 -41 5 -41 13 -9 75 -11 72 37 68 44 -3 44 -3 44 -42z m-83 -146 c-4 -3 -7 0 -7 7 0 7 3 10 7 7 3 -4 3 -10 0 -14z m0 -100 c-4 -3 -7 0 -7 7 0 7 3 10 7 7 3 -4 3 -10 0 -14z"/>
<path d="M1093 363 c4 -3 10 -3 14 0 3 4 0 7 -7 7 -7 0 -10 -3 -7 -7z"/>
<path d="M1203 363 c4 -3 10 -3 14 0 3 4 0 7 -7 7 -7 0 -10 -3 -7 -7z"/>
<path d="M1418 363 c7 -3 16 -2 19 1 4 3 -2 6 -13 5 -11 0 -14 -3 -6 -6z"/>
<path d="M1123 353 c4 -3 10 -3 14 0 3 4 0 7 -7 7 -7 0 -10 -3 -7 -7z"/>
<path d="M1168 343 c7 -3 16 -2 19 1 4 3 -2 6 -13 5 -11 0 -14 -3 -6 -6z"/>
<path d="M1248 343 c6 -2 18 -2 25 0 6 3 1 5 -13 5 -14 0 -19 -2 -12 -5z"/>
<path d="M1370 340 c-8 -5 -33 -10 -55 -11 -33 -2 -35 -3 -10 -6 17 -2 55 3 85 11 42 11 48 15 25 15 -16 0 -37 -4 -45 -9z"/>
</g>
<g id="layer113" fill="#fefefe" stroke="none">
<path d="M0 960 l0 -960 1315 0 1315 0 0 960 0 960 -1315 0 -1315 0 0 -960z m1500 689 c37 -12 86 -33 161 -67 25 -12 71 -44 103 -72 31 -27 62 -50 67 -50 6 0 7 -4 4 -10 -3 -5 1 -10 9 -10 9 0 16 -6 16 -13 0 -19 35 -49 45 -40 4 5 5 2 1 -5 -4 -6 2 -24 12 -40 25 -35 72 -146 84 -197 40 -173 28 -323 -37 -475 -15 -36 -36 -77 -47 -92 -10 -16 -16 -34 -12 -40 4 -7 3 -10 -1 -5 -10 9 -45 -21 -45 -40 0 -7 -7 -13 -16 -13 -8 0 -12 -5 -9 -10 3 -6 2 -10 -4 -10 -5 0 -36 -23 -68 -51 -32 -28 -78 -60 -103 -71 -25 -10 -63 -28 -85 -38 -79 -36 -128 -45 -260 -45 -95 0 -144 5 -184 17 -29 10 -58 15 -64 11 -6 -3 -7 -1 -3 5 5 8 -2 12 -18 12 -14 0 -26 4 -26 8 0 4 -16 15 -34 23 -26 12 -38 13 -46 5 -8 -8 -10 -7 -5 5 4 10 -3 22 -19 33 -15 9 -26 13 -26 10 0 -4 -11 6 -24 21 -22 25 -27 27 -42 14 -10 -8 -15 -9 -11 -2 4 6 3 14 -3 18 -6 4 -8 10 -5 14 2 5 -10 23 -27 42 -85 93 -149 238 -168 378 -27 196 40 419 168 560 17 19 29 37 27 42 -3 4 -1 10 5 14 6 4 7 12 3 18 -4 7 1 6 11 -2 15 -13 20 -11 42 14 13 15 24 25 24 21 0 -3 11 1 26 10 16 11 23 23 19 33 -5 12 -3 13 5 5 9 -9 20 -8 43 5 18 9 33 19 35 24 2 4 15 7 28 7 17 0 23 4 18 12 -4 6 -3 8 3 5 6 -4 32 0 59 7 27 8 60 17 74 20 42 8 263 -2 300 -15z m-585 -69 c4 -6 -1 -7 -11 -3 -13 5 -15 3 -9 -7 5 -9 4 -11 -4 -6 -6 4 -9 12 -6 17 8 12 22 12 30 -1z m910 -70 c3 -5 4 -10 1 -10 -3 0 -8 5 -11 10 -3 6 -4 10 -1 10 3 0 8 -4 11 -10z m-1228 -412 c-3 -8 -6 -5 -6 6 -1 11 2 17 5 13 3 -3 4 -12 1 -19z m0 -290 c-3 -8 -6 -5 -6 6 -1 11 2 17 5 13 3 -3 4 -12 1 -19z m1233 -392 c0 -3 -5 -8 -12 -12 -7 -4 -8 -3 -4 4 7 12 16 16 16 8z m-936 -68 c-5 -8 -1 -9 12 -4 14 5 16 4 7 -5 -13 -13 -37 -3 -28 12 4 5 8 9 11 9 3 0 2 -5 -2 -12z m231 -98 c3 -5 4 -10 1 -10 -3 0 -8 5 -11 10 -3 6 -4 10 -1 10 3 0 8 -4 11 -10z"/>
<path d="M814 1478 c-4 -7 -3 -8 4 -4 12 7 16 16 8 16 -3 0 -8 -5 -12 -12z"/>
<path d="M1230 1290 l-35 -7 38 -2 c20 0 37 4 37 9 0 6 -1 9 -2 9 -2 -1 -19 -5 -38 -9z"/>
<path d="M1303 1283 c15 -2 39 -2 55 0 15 2 2 4 -28 4 -30 0 -43 -2 -27 -4z"/>
<path d="M1125 1240 c-55 -38 -112 -118 -95 -133 10 -9 12 -9 8 3 -5 15 15 43 25 34 2 -2 10 4 18 13 13 16 12 17 -3 4 -21 -16 -23 -4 -4 21 7 10 17 14 21 10 5 -4 5 -1 1 6 -4 6 -2 12 3 12 6 0 20 9 32 21 14 14 29 19 45 16 28 -5 31 -1 7 12 -14 7 -28 2 -58 -19z"/>
<path d="M1476 1252 c-3 -5 1 -9 9 -9 8 0 12 4 9 9 -3 4 -7 8 -9 8 -2 0 -6 -4 -9 -8z"/>
<path d="M1505 1229 c-4 -6 -14 -8 -24 -4 -13 5 -14 4 -3 -6 10 -11 15 -10 29 4 10 9 14 17 11 17 -4 0 -10 -5 -13 -11z"/>
<path d="M1163 1223 c4 -3 10 -3 14 0 3 4 0 7 -7 7 -7 0 -10 -3 -7 -7z"/>
<path d="M1525 1210 c3 -5 8 -10 11 -10 3 0 2 5 -1 10 -3 6 -8 10 -11 10 -3 0 -2 -4 1 -10z"/>
<path d="M1172 1201 c-21 -13 32 -23 60 -11 19 9 18 9 -11 4 -23 -4 -31 -3 -27 5 8 13 -3 14 -22 2z"/>
<path d="M1430 1200 c-8 -5 -10 -10 -5 -10 6 0 17 5 25 10 8 5 11 10 5 10 -5 0 -17 -5 -25 -10z"/>
<path d="M1114 1188 c-4 -7 -3 -8 4 -4 7 4 12 9 12 12 0 8 -9 4 -16 -8z"/>
<path d="M1444 1178 c-4 -7 -3 -8 4 -4 12 7 16 16 8 16 -3 0 -8 -5 -12 -12z"/>
<path d="M1511 1173 c7 -12 15 -20 18 -17 3 2 -3 12 -13 22 -17 16 -18 16 -5 -5z"/>
<path d="M1165 1170 c-3 -5 -1 -10 4 -10 6 0 11 5 11 10 0 6 -2 10 -4 10 -3 0 -8 -4 -11 -10z"/>
<path d="M1556 1171 c-7 -10 3 -41 13 -42 3 0 14 -2 24 -4 9 -2 15 1 11 6 -3 5 -10 6 -16 3 -7 -5 -9 -1 -5 9 4 12 2 14 -10 10 -12 -5 -15 -2 -10 10 7 18 2 23 -7 8z"/>
<path d="M1126 1158 c-13 -42 -14 -60 -4 -50 6 6 12 23 13 37 1 27 -3 33 -9 13z"/>
<path d="M1466 1161 c-3 -5 -2 -11 3 -13 6 -1 26 -25 46 -53 19 -27 35 -45 35 -39 0 18 -78 116 -84 105z"/>
<path d="M1084 1128 c-4 -7 -3 -8 4 -4 12 7 16 16 8 16 -3 0 -8 -5 -12 -12z"/>
<path d="M1071 1094 c0 -11 3 -14 6 -6 3 7 2 16 -1 19 -3 4 -6 -2 -5 -13z"/>
<path d="M1606 1085 c-7 -18 3 -45 16 -45 5 0 7 -10 3 -22 -5 -18 -4 -20 4 -7 7 11 7 28 0 52 -11 41 -14 44 -23 22z"/>
<path d="M1560 1080 c0 -7 3 -10 7 -7 3 4 3 10 0 14 -4 3 -7 0 -7 -7z"/>
<path d="M1090 1070 c0 -7 3 -10 7 -7 3 4 3 10 0 14 -4 3 -7 0 -7 -7z"/>
<path d="M1050 1061 c0 -7 7 -19 15 -27 19 -20 19 -5 0 20 -9 11 -15 14 -15 7z"/>
<path d="M1001 1044 c0 -11 3 -14 6 -6 3 7 2 16 -1 19 -3 4 -6 -2 -5 -13z"/>
<path d="M1563 1035 c-3 -9 -3 -18 -1 -21 3 -3 8 4 11 16 6 23 -1 27 -10 5z"/>
<path d="M991 1004 c0 -11 3 -14 6 -6 3 7 2 16 -1 19 -3 4 -6 -2 -5 -13z"/>
<path d="M1032 995 c0 -16 2 -22 5 -12 2 9 2 23 0 30 -3 6 -5 -1 -5 -18z"/>
<path d="M1082 980 c0 -14 2 -19 5 -12 2 6 2 18 0 25 -3 6 -5 1 -5 -13z"/>
<path d="M1594 940 c-4 -36 -10 -57 -12 -47 -4 18 -4 18 -18 0 -12 -16 -13 -15 -15 17 -1 34 -2 33 -19 -19 -10 -34 -19 -49 -23 -40 -4 8 -4 3 -1 -11 9 -37 22 -49 47 -42 22 5 22 5 -2 -22 -29 -31 -34 -32 -26 -7 8 27 -33 52 -60 37 -11 -6 -25 -18 -32 -26 -15 -18 -17 -100 -3 -100 16 0 60 23 60 32 0 4 6 8 13 8 18 0 89 77 105 113 14 32 15 40 4 33 -10 -6 -12 76 -2 89 4 6 4 19 0 30 -6 14 -10 2 -16 -45z m-157 -202 c-3 -7 -5 -2 -5 12 0 14 2 19 5 13 2 -7 2 -19 0 -25z"/>
<path d="M1044 953 c-5 -25 -3 -38 5 -41 6 -2 11 -11 11 -20 0 -11 6 -6 15 12 18 34 18 36 5 36 -5 0 -10 -8 -11 -17 0 -15 -2 -15 -9 2 -4 11 -6 30 -3 43 3 12 3 22 0 22 -4 0 -9 -17 -13 -37z"/>
<path d="M1540 979 c0 -9 7 -22 15 -29 19 -16 19 0 0 26 -12 16 -14 16 -15 3z"/>
<path d="M1626 968 c-3 -13 -1 -27 4 -32 7 -7 10 1 10 22 0 37 -5 41 -14 10z"/>
<path d="M1313 973 l47 -4 0 -45 0 -44 -39 0 c-39 0 -40 1 -49 43 -6 32 -9 3 -10 -120 -3 -195 2 -213 58 -213 51 0 51 -1 47 215 l-2 170 -50 1 -50 1 48 -4z m-36 -205 c-3 -8 -6 -5 -6 6 -1 11 2 17 5 13 3 -3 4 -12 1 -19z m0 -90 c-3 -7 -5 -2 -5 12 0 14 2 19 5 13 2 -7 2 -19 0 -25z"/>
<path d="M1580 970 c0 -7 3 -10 7 -7 3 4 3 10 0 14 -4 3 -7 0 -7 -7z"/>
<path d="M997 956 c-4 -10 -5 -21 -2 -24 9 -9 17 6 13 25 -3 17 -4 17 -11 -1z"/>
<path d="M1621 894 c0 -11 3 -14 6 -6 3 7 2 16 -1 19 -3 4 -6 -2 -5 -13z"/>
<path d="M1013 884 c-10 -10 -10 -16 2 -27 8 -8 11 -17 8 -21 -4 -3 -1 -6 5 -6 13 0 16 38 4 56 -5 9 -10 8 -19 -2z m14 -21 c-4 -3 -7 0 -7 7 0 7 3 10 7 7 3 -4 3 -10 0 -14z"/>
<path d="M1095 890 c3 -5 8 -10 11 -10 3 0 2 5 -1 10 -3 6 -8 10 -11 10 -3 0 -2 -4 1 -10z"/>
<path d="M1120 840 c0 -7 3 -10 7 -7 3 4 3 10 0 14 -4 3 -7 0 -7 -7z"/>
<path d="M1137 823 c-4 -4 -30 -6 -58 -4 -39 2 -50 -1 -47 -11 3 -7 13 -13 24 -13 10 0 26 -4 34 -10 8 -5 20 -10 25 -11 6 0 16 -2 23 -2 14 -2 17 -32 2 -32 -5 0 -10 6 -10 13 0 13 -20 -11 -20 -25 0 -9 74 -48 90 -48 5 0 10 19 10 43 0 36 -6 49 -33 75 -18 18 -36 29 -40 25z m50 -70 c-4 -6 -3 -13 5 -16 8 -3 6 -6 -6 -6 -12 -1 -16 4 -13 13 6 14 -16 39 -43 49 -12 4 -11 6 3 6 12 1 16 5 11 14 -4 6 6 -1 22 -18 18 -19 26 -34 21 -42z m1 -33 c10 0 13 -3 6 -10 -11 -11 -54 -2 -54 12 0 6 7 7 16 4 9 -3 23 -6 32 -6z"/>
<path d="M1060 782 c0 -12 39 -46 45 -40 6 5 -29 48 -39 48 -3 0 -6 -4 -6 -8z"/>
<path d="M815 440 c3 -5 8 -10 11 -10 3 0 2 5 -1 10 -3 6 -8 10 -11 10 -3 0 -2 -4 1 -10z"/>
</g>


</svg>