<?xml version="1.0" standalone="no"?>
<!DOCTYPE svg PUBLIC "-//W3C//DTD SVG 20010904//EN"
 "http://www.w3.org/TR/2001/REC-SVG-20010904/DTD/svg10.dtd">
<svg version="1.0" xmlns="http://www.w3.org/2000/svg"
 width="225.000000pt" height="225.000000pt" viewBox="0 0 225.000000 225.000000"
 preserveAspectRatio="xMidYMid meet">

<g transform="translate(0.000000,225.000000) scale(0.100000,-0.100000)"
fill="#000000" stroke="none">
<path d="M863 1854 c-7 -3 -15 -28 -19 -56 -6 -41 -11 -51 -33 -59 -14 -6 -40
-17 -57 -25 -31 -15 -34 -14 -75 16 l-43 31 -48 -48 c-26 -26 -48 -52 -48 -58
1 -5 14 -28 29 -50 l28 -39 -18 -44 c-11 -24 -19 -49 -19 -57 0 -13 -42 -25
-86 -25 -23 0 -24 -3 -24 -74 0 -81 -3 -78 70 -90 31 -5 39 -13 63 -62 l28
-56 -31 -41 -30 -41 51 -52 52 -52 33 21 c33 22 34 23 34 94 l0 73 41 6 40 7
-35 36 c-121 124 -71 328 95 386 78 28 152 15 223 -40 48 -36 56 -36 56 4 0
40 10 46 75 49 49 3 64 8 83 28 12 14 22 28 22 32 0 4 -22 30 -50 57 l-49 49
-45 -32 -45 -32 -58 23 c-58 23 -58 24 -66 74 l-8 50 -62 1 c-34 0 -68 -1 -74
-4z"/>
<path d="M1205 1473 l-7 -58 -60 -24 -61 -23 -42 30 -43 30 -53 -54 -53 -53
33 -46 32 -45 -23 -59 c-23 -60 -23 -60 -73 -68 l-50 -8 -3 -77 -3 -77 48 -6
c26 -4 52 -7 56 -8 5 -2 19 -29 32 -62 l25 -60 -30 -41 -29 -41 54 -53 54 -54
45 32 44 32 44 -20 c23 -11 51 -20 60 -20 13 0 18 -13 23 -55 l7 -55 78 0 77
0 9 56 9 55 59 24 59 24 42 -29 42 -29 53 54 53 53 -31 44 -31 43 22 62 21 61
53 7 53 6 0 80 0 79 -32 1 c-64 2 -78 12 -104 71 l-26 56 30 45 31 44 -54 53
-53 53 -45 -33 -45 -32 -60 22 -61 22 -8 52 -8 51 -77 3 -76 3 -7 -58z m170
-294 c16 -8 42 -31 58 -51 85 -105 5 -267 -131 -268 -149 0 -225 170 -125 281
53 58 127 72 198 38z"/>
</g>
</svg>
