<?xml version="1.0" standalone="no"?>
<!DOCTYPE svg PUBLIC "-//W3C//DTD SVG 20010904//EN"
 "http://www.w3.org/TR/2001/REC-SVG-20010904/DTD/svg10.dtd">
<svg version="1.0" xmlns="http://www.w3.org/2000/svg"
 width="275.000000pt" height="183.000000pt" viewBox="0 0 275.000000 183.000000"
 preserveAspectRatio="xMidYMid meet">

<g transform="translate(0.000000,183.000000) scale(0.100000,-0.100000)"
fill="#000000" stroke="none">
<path d="M1183 1650 c-40 -10 -85 -26 -100 -35 -15 -9 -21 -14 -13 -11 114 37
156 48 211 55 56 7 59 9 19 9 -25 1 -77 -8 -117 -18z"/>
<path d="M1025 1590 c-3 -6 1 -7 9 -4 18 7 21 14 7 14 -6 0 -13 -4 -16 -10z"/>
<path d="M942 1539 c-64 -42 -174 -154 -205 -208 -28 -49 -14 -36 28 24 45 66
138 154 200 191 40 23 53 34 41 34 -2 0 -31 -18 -64 -41z"/>
<path d="M1345 1318 c-42 -23 -45 -35 -45 -215 0 -171 0 -174 25 -198 13 -14
30 -25 37 -25 7 0 4 6 -7 12 -42 23 -45 35 -45 215 0 125 3 175 13 183 6 6 21
17 32 25 24 17 18 19 -10 3z"/>
<path d="M695 1259 c-9 -17 -15 -33 -13 -35 3 -2 12 12 21 31 21 43 13 47 -8
4z"/>
<path d="M656 1164 c-9 -26 -16 -52 -15 -58 0 -6 9 13 20 43 10 30 17 56 15
58 -2 2 -11 -17 -20 -43z"/>
<path d="M1082 1103 c-36 -47 -55 -83 -48 -91 3 -3 6 -1 6 5 0 19 63 105 84
113 16 7 17 9 4 9 -9 1 -30 -16 -46 -36z"/>
<path d="M1201 1113 c7 -12 15 -20 18 -17 3 2 -3 12 -13 22 -17 16 -18 16 -5
-5z"/>
<path d="M632 1070 c0 -14 2 -19 5 -12 2 6 2 18 0 25 -3 6 -5 1 -5 -13z"/>
<path d="M1213 1053 c-7 -15 -24 -48 -38 -72 -29 -51 -34 -140 -12 -194 31
-72 121 -144 170 -134 20 4 20 4 -3 6 -41 2 -102 43 -135 89 -27 40 -30 51
-30 126 0 75 2 85 33 134 19 28 32 56 30 62 -2 6 -9 -2 -15 -17z"/>
<path d="M623 1005 c0 -22 2 -30 4 -17 2 12 2 30 0 40 -3 9 -5 -1 -4 -23z"/>
<path d="M1016 985 c-3 -9 -6 -24 -5 -33 0 -9 5 -4 10 12 9 32 6 48 -5 21z"/>
<path d="M613 915 c0 -27 2 -38 4 -22 2 15 2 37 0 50 -2 12 -4 0 -4 -28z"/>
<path d="M1003 875 c0 -33 2 -45 4 -27 2 18 2 45 0 60 -2 15 -4 0 -4 -33z"/>
<path d="M623 825 c0 -22 2 -30 4 -17 2 12 2 30 0 40 -3 9 -5 -1 -4 -23z"/>
<path d="M1011 794 c-2 -38 58 -141 110 -189 59 -55 136 -93 205 -100 48 -5
47 -5 -12 9 -145 34 -248 125 -289 259 -8 24 -14 33 -14 21z"/>
<path d="M632 760 c0 -14 2 -19 5 -12 2 6 2 18 0 25 -3 6 -5 1 -5 -13z"/>
<path d="M641 724 c-1 -15 30 -106 35 -101 2 2 -5 28 -15 58 -11 30 -20 49
-20 43z"/>
<path d="M680 606 c0 -11 30 -66 36 -66 2 0 -3 15 -12 33 -19 36 -24 44 -24
33z"/>
<path d="M737 498 c26 -48 181 -199 231 -226 56 -31 54 -21 -3 12 -62 37 -155
125 -200 191 -43 61 -56 72 -28 23z"/>
<path d="M1027 239 c7 -7 15 -10 18 -7 3 3 -2 9 -12 12 -14 6 -15 5 -6 -5z"/>
<path d="M1083 215 c38 -22 172 -55 216 -54 27 1 21 4 -24 10 -51 7 -95 19
-205 55 -8 3 -2 -2 13 -11z"/>
</g>
</svg>
